<svg width="22" height="22" viewBox="0 0 22 22" fill="none" xmlns="http://www.w3.org/2000/svg">
<path d="M11 0C17.083 0 22 4.9291 22 11C22 17.0731 17.083 22 11 22C4.928 22 0 17.0731 0 11C0 4.9291 4.928 0 11 0ZM11 14.2241C10.472 14.2241 10.043 14.6531 10.043 15.1811C10.043 15.7091 10.472 16.1491 11.011 16.1491C11.539 16.1491 11.968 15.7091 11.968 15.1811C11.968 14.6531 11.539 14.2241 11 14.2241ZM11 5.863C10.472 5.863 10.032 6.3041 10.032 6.831V11.693C10.032 12.2221 10.472 12.65 11 12.65C11.528 12.65 11.957 12.2221 11.957 11.693V6.831C11.957 6.3041 11.528 5.863 11 5.863Z" fill="#8585AD"/>
</svg>
